<mxfile host="app.diagrams.net" modified="2023-04-06T05:46:45.591Z" agent="Mozilla/5.0 (Macintosh; Intel Mac OS X 10.15; rv:109.0) Gecko/20100101 Firefox/111.0" etag="ZfuqQqMdmGcaMfuSxdCp" version="21.1.4" type="google">
  <diagram name="Pagina-1" id="M5vYZJGFuTcM1lFT4zKQ">
    <mxGraphModel grid="1" page="1" gridSize="10" guides="1" tooltips="1" connect="1" arrows="1" fold="1" pageScale="1" pageWidth="827" pageHeight="1169" math="0" shadow="0">
      <root>
        <mxCell id="0" />
        <mxCell id="1" parent="0" />
        <mxCell id="Cd8QKK2ximQbVMj9Xtme-10" value="" style="edgeStyle=orthogonalEdgeStyle;rounded=0;orthogonalLoop=1;jettySize=auto;html=1;" edge="1" parent="1" source="Cd8QKK2ximQbVMj9Xtme-1" target="Cd8QKK2ximQbVMj9Xtme-3">
          <mxGeometry relative="1" as="geometry" />
        </mxCell>
        <mxCell id="Cd8QKK2ximQbVMj9Xtme-1" value="START" style="ellipse;whiteSpace=wrap;html=1;" vertex="1" parent="1">
          <mxGeometry x="354" width="120" height="50" as="geometry" />
        </mxCell>
        <mxCell id="Cd8QKK2ximQbVMj9Xtme-2" value="base" style="shape=parallelogram;perimeter=parallelogramPerimeter;whiteSpace=wrap;html=1;fixedSize=1;" vertex="1" parent="1">
          <mxGeometry x="350" y="80" width="120" height="40" as="geometry" />
        </mxCell>
        <mxCell id="Cd8QKK2ximQbVMj9Xtme-11" value="" style="edgeStyle=orthogonalEdgeStyle;rounded=0;orthogonalLoop=1;jettySize=auto;html=1;" edge="1" parent="1" source="Cd8QKK2ximQbVMj9Xtme-4" target="Cd8QKK2ximQbVMj9Xtme-5">
          <mxGeometry relative="1" as="geometry" />
        </mxCell>
        <mxCell id="Cd8QKK2ximQbVMj9Xtme-3" value="altezza" style="shape=parallelogram;perimeter=parallelogramPerimeter;whiteSpace=wrap;html=1;fixedSize=1;" vertex="1" parent="1">
          <mxGeometry x="340" y="150" width="120" height="50" as="geometry" />
        </mxCell>
        <mxCell id="Cd8QKK2ximQbVMj9Xtme-14" value="" style="edgeStyle=orthogonalEdgeStyle;rounded=0;orthogonalLoop=1;jettySize=auto;html=1;" edge="1" parent="1" source="Cd8QKK2ximQbVMj9Xtme-5" target="Cd8QKK2ximQbVMj9Xtme-7">
          <mxGeometry relative="1" as="geometry" />
        </mxCell>
        <mxCell id="Cd8QKK2ximQbVMj9Xtme-5" value="area = base * altezza" style="rounded=0;whiteSpace=wrap;html=1;" vertex="1" parent="1">
          <mxGeometry x="340" y="310" width="120" height="60" as="geometry" />
        </mxCell>
        <mxCell id="Cd8QKK2ximQbVMj9Xtme-16" value="" style="edgeStyle=orthogonalEdgeStyle;rounded=0;orthogonalLoop=1;jettySize=auto;html=1;" edge="1" parent="1" source="Cd8QKK2ximQbVMj9Xtme-6" target="Cd8QKK2ximQbVMj9Xtme-8">
          <mxGeometry relative="1" as="geometry" />
        </mxCell>
        <mxCell id="Cd8QKK2ximQbVMj9Xtme-6" value="perimetro" style="shape=parallelogram;perimeter=parallelogramPerimeter;whiteSpace=wrap;html=1;fixedSize=1;" vertex="1" parent="1">
          <mxGeometry x="340" y="490" width="120" height="60" as="geometry" />
        </mxCell>
        <mxCell id="Cd8QKK2ximQbVMj9Xtme-15" value="" style="edgeStyle=orthogonalEdgeStyle;rounded=0;orthogonalLoop=1;jettySize=auto;html=1;" edge="1" parent="1" source="Cd8QKK2ximQbVMj9Xtme-7" target="Cd8QKK2ximQbVMj9Xtme-6">
          <mxGeometry relative="1" as="geometry" />
        </mxCell>
        <mxCell id="Cd8QKK2ximQbVMj9Xtme-7" value="area" style="shape=parallelogram;perimeter=parallelogramPerimeter;whiteSpace=wrap;html=1;fixedSize=1;" vertex="1" parent="1">
          <mxGeometry x="340" y="400" width="120" height="60" as="geometry" />
        </mxCell>
        <mxCell id="Cd8QKK2ximQbVMj9Xtme-17" value="" style="edgeStyle=orthogonalEdgeStyle;rounded=0;orthogonalLoop=1;jettySize=auto;html=1;" edge="1" parent="1" source="Cd8QKK2ximQbVMj9Xtme-8" target="Cd8QKK2ximQbVMj9Xtme-9">
          <mxGeometry relative="1" as="geometry" />
        </mxCell>
        <mxCell id="Cd8QKK2ximQbVMj9Xtme-8" value="contorno" style="shape=process;whiteSpace=wrap;html=1;backgroundOutline=1;" vertex="1" parent="1">
          <mxGeometry x="340" y="585" width="120" height="60" as="geometry" />
        </mxCell>
        <mxCell id="Cd8QKK2ximQbVMj9Xtme-9" value="END" style="ellipse;whiteSpace=wrap;html=1;" vertex="1" parent="1">
          <mxGeometry x="340" y="670" width="120" height="80" as="geometry" />
        </mxCell>
        <mxCell id="Cd8QKK2ximQbVMj9Xtme-12" value="" style="edgeStyle=orthogonalEdgeStyle;rounded=0;orthogonalLoop=1;jettySize=auto;html=1;" edge="1" parent="1" source="Cd8QKK2ximQbVMj9Xtme-3" target="Cd8QKK2ximQbVMj9Xtme-4">
          <mxGeometry relative="1" as="geometry">
            <mxPoint x="400" y="200" as="sourcePoint" />
            <mxPoint x="400" y="310" as="targetPoint" />
          </mxGeometry>
        </mxCell>
        <mxCell id="Cd8QKK2ximQbVMj9Xtme-4" value="perimetro = 2*(base+altezza)" style="rounded=0;whiteSpace=wrap;html=1;" vertex="1" parent="1">
          <mxGeometry x="340" y="220" width="120" height="60" as="geometry" />
        </mxCell>
      </root>
    </mxGraphModel>
  </diagram>
</mxfile>
